<svg xmlns="http://www.w3.org/2000/svg" viewBox="0 0 1920 942" preserveAspectRatio="xMidYMid" width="1920" height="942" xmlns:xlink="http://www.w3.org/1999/xlink" style="shape-rendering:auto;display:block;background-position-x:0%;background-position-y:0%;background-size:auto;background-origin:padding-box;background-clip:border-box;fill:rgb(0, 0, 0);stroke:none;transform:none;opacity:1;background:scroll rgb(26, 27, 32) none  repeat;width:1920px;height:942px;;animation:none"><g style="fill:rgb(0, 0, 0);stroke:none;transform:none;opacity:1;;animation:none"><path stroke-width="2" stroke-opacity="0" stroke="rgb(98, 82, 197)" fill="none" d="M 0 522.5 C 320 522.5 640 663.5 960 663.5 C 1280 663.5 1600 522.5 1920 522.5 C 2240 522.5 2560 663.5 2880 663.5 C 3200 663.5 3520 522.5 3840 522.5" transform="matrix(1,0,0,1,0,0)" style="fill:none;stroke:rgb(98, 82, 197);transform:matrix(1, 0, 0, 1, 0, 0);opacity:1;;animation:none"></path>
<path stroke-width="2" stroke-opacity="0" stroke="rgb(98, 82, 197)" fill="none" d="M 0 522.521 C 320 522.521 640 663.479 960 663.479 C 1280 663.479 1600 522.521 1920 522.521 C 2240 522.521 2560 663.479 2880 663.479 C 3200 663.479 3520 522.521 3840 522.521" transform="matrix(1,0,0,1,-10.079999923706055,0)" style="fill:none;stroke:rgb(98, 82, 197);transform:matrix(1, 0, 0, 1, -10.08, 0);opacity:1;;animation:none"></path>
<path stroke-width="2" stroke-opacity="0" stroke="rgb(98, 82, 197)" fill="none" d="M 0 522.589 C 320 522.589 640 663.411 960 663.411 C 1280 663.411 1600 522.589 1920 522.589 C 2240 522.589 2560 663.411 2880 663.411 C 3200 663.411 3520 522.589 3840 522.589" transform="matrix(1,0,0,1,-20.639999389648438,0)" style="fill:none;stroke:rgb(98, 82, 197);transform:matrix(1, 0, 0, 1, -20.64, 0);opacity:1;;animation:none"></path>
<path stroke-width="2" stroke-opacity="0" stroke="rgb(98, 82, 197)" fill="none" d="M 0 522.698 C 320 522.698 640 663.302 960 663.302 C 1280 663.302 1600 522.698 1920 522.698 C 2240 522.698 2560 663.302 2880 663.302 C 3200 663.302 3520 522.698 3840 522.698" transform="matrix(1,0,0,1,-30.719999313354492,0)" style="fill:none;stroke:rgb(98, 82, 197);transform:matrix(1, 0, 0, 1, -30.72, 0);opacity:1;;animation:none"></path>
<path stroke-width="2" stroke-opacity="0" stroke="rgb(97, 83, 197)" fill="none" d="M 0 522.853 C 320 522.853 640 663.147 960 663.147 C 1280 663.147 1600 522.853 1920 522.853 C 2240 522.853 2560 663.147 2880 663.147 C 3200 663.147 3520 522.853 3840 522.853" transform="matrix(1,0,0,1,-40.79999923706055,0)" style="fill:none;stroke:rgb(97, 83, 197);transform:matrix(1, 0, 0, 1, -40.8, 0);opacity:1;;animation:none"></path>
<path stroke-width="2" stroke-opacity="0" stroke="rgb(97, 83, 197)" fill="none" d="M 0 523.065 C 320 523.065 640 662.935 960 662.935 C 1280 662.935 1600 523.065 1920 523.065 C 2240 523.065 2560 662.935 2880 662.935 C 3200 662.935 3520 523.065 3840 523.065" transform="matrix(1,0,0,1,-51.36000061035156,0)" style="fill:none;stroke:rgb(97, 83, 197);transform:matrix(1, 0, 0, 1, -51.36, 0);opacity:1;;animation:none"></path>
<path stroke-width="2" stroke-opacity="0" stroke="rgb(97, 84, 198)" fill="none" d="M 0 523.316 C 320 523.316 640 662.684 960 662.684 C 1280 662.684 1600 523.316 1920 523.316 C 2240 523.316 2560 662.684 2880 662.684 C 3200 662.684 3520 523.316 3840 523.316" transform="matrix(1,0,0,1,-61.439998626708984,0)" style="fill:none;stroke:rgb(97, 84, 198);transform:matrix(1, 0, 0, 1, -61.44, 0);opacity:1;;animation:none"></path>
<path stroke-width="2" stroke-opacity="0" stroke="rgb(96, 85, 198)" fill="none" d="M 0 523.617 C 320 523.617 640 662.383 960 662.383 C 1280 662.383 1600 523.617 1920 523.617 C 2240 523.617 2560 662.383 2880 662.383 C 3200 662.383 3520 523.617 3840 523.617" transform="matrix(1,0,0,1,-71.5199966430664,0)" style="fill:none;stroke:rgb(96, 85, 198);transform:matrix(1, 0, 0, 1, -71.52, 0);opacity:1;;animation:none"></path>
<path stroke-width="2" stroke-opacity="0" stroke="rgb(95, 86, 198)" fill="none" d="M 0 523.987 C 320 523.987 640 662.014 960 662.014 C 1280 662.014 1600 523.987 1920 523.987 C 2240 523.987 2560 662.014 2880 662.014 C 3200 662.014 3520 523.987 3840 523.987" transform="matrix(1,0,0,1,-82.08000183105469,0)" style="fill:none;stroke:rgb(95, 86, 198);transform:matrix(1, 0, 0, 1, -82.08, 0);opacity:1;;animation:none"></path>
<path stroke-width="2" stroke-opacity="0" stroke="rgb(95, 87, 198)" fill="none" d="M 0 524.393 C 320 524.393 640 661.607 960 661.607 C 1280 661.607 1600 524.393 1920 524.393 C 2240 524.393 2560 661.607 2880 661.607 C 3200 661.607 3520 524.393 3840 524.393" transform="matrix(1,0,0,1,-92.16000366210938,0)" style="fill:none;stroke:rgb(95, 87, 198);transform:matrix(1, 0, 0, 1, -92.16, 0);opacity:1;;animation:none"></path>
<path stroke-width="2" stroke-opacity="0" stroke="rgb(94, 88, 199)" fill="none" d="M 0 524.853 C 320 524.853 640 661.147 960 661.147 C 1280 661.147 1600 524.853 1920 524.853 C 2240 524.853 2560 661.147 2880 661.147 C 3200 661.147 3520 524.853 3840 524.853" transform="matrix(1,0,0,1,-102.23999786376953,0)" style="fill:none;stroke:rgb(94, 88, 199);transform:matrix(1, 0, 0, 1, -102.24, 0);opacity:1;;animation:none"></path>
<path stroke-width="2" stroke-opacity="0" stroke="rgb(93, 89, 199)" fill="none" d="M 0 525.395 C 320 525.395 640 660.605 960 660.605 C 1280 660.605 1600 525.395 1920 525.395 C 2240 525.395 2560 660.605 2880 660.605 C 3200 660.605 3520 525.395 3840 525.395" transform="matrix(1,0,0,1,-112.80000305175781,0)" style="fill:none;stroke:rgb(93, 89, 199);transform:matrix(1, 0, 0, 1, -112.8, 0);opacity:1;;animation:none"></path>
<path stroke-width="2" stroke-opacity="0" stroke="rgb(92, 91, 200)" fill="none" d="M 0 525.97 C 320 525.97 640 660.03 960 660.03 C 1280 660.03 1600 525.97 1920 525.97 C 2240 525.97 2560 660.03 2880 660.03 C 3200 660.03 3520 525.97 3840 525.97" transform="matrix(1,0,0,1,-122.87999725341797,0)" style="fill:none;stroke:rgb(92, 91, 200);transform:matrix(1, 0, 0, 1, -122.88, 0);opacity:1;;animation:none"></path>
<path stroke-width="2" stroke-opacity="0" stroke="rgb(91, 92, 200)" fill="none" d="M 0 526.605 C 320 526.605 640 659.396 960 659.396 C 1280 659.396 1600 526.605 1920 526.605 C 2240 526.605 2560 659.396 2880 659.396 C 3200 659.396 3520 526.605 3840 526.605" transform="matrix(1,0,0,1,-132.9600067138672,0)" style="fill:none;stroke:rgb(91, 92, 200);transform:matrix(1, 0, 0, 1, -132.96, 0);opacity:1;;animation:none"></path>
<path stroke-width="2" stroke-opacity="0" stroke="rgb(89, 94, 201)" fill="none" d="M 0 527.334 C 320 527.334 640 658.666 960 658.666 C 1280 658.666 1600 527.334 1920 527.334 C 2240 527.334 2560 658.666 2880 658.666 C 3200 658.666 3520 527.334 3840 527.334" transform="matrix(1,0,0,1,-143.52000427246094,0)" style="fill:none;stroke:rgb(89, 94, 201);transform:matrix(1, 0, 0, 1, -143.52, 0);opacity:1;;animation:none"></path>
<path stroke-width="2" stroke-opacity="0" stroke="rgb(88, 96, 202)" fill="none" d="M 0 528.094 C 320 528.094 640 657.906 960 657.906 C 1280 657.906 1600 528.094 1920 528.094 C 2240 528.094 2560 657.906 2880 657.906 C 3200 657.906 3520 528.094 3840 528.094" transform="matrix(1,0,0,1,-153.60000610351562,0)" style="fill:none;stroke:rgb(88, 96, 202);transform:matrix(1, 0, 0, 1, -153.6, 0);opacity:1;;animation:none"></path>
<path stroke-width="2" stroke-opacity="0" stroke="rgb(86, 99, 202)" fill="none" d="M 0 528.919 C 320 528.919 640 657.081 960 657.081 C 1280 657.081 1600 528.919 1920 528.919 C 2240 528.919 2560 657.081 2880 657.081 C 3200 657.081 3520 528.919 3840 528.919" transform="matrix(1,0,0,1,-163.67999267578125,0)" style="fill:none;stroke:rgb(86, 99, 202);transform:matrix(1, 0, 0, 1, -163.68, 0);opacity:1;;animation:none"></path>
<path stroke-width="2" stroke-opacity="0" stroke="rgb(84, 101, 203)" fill="none" d="M 0 529.853 C 320 529.853 640 656.147 960 656.147 C 1280 656.147 1600 529.853 1920 529.853 C 2240 529.853 2560 656.147 2880 656.147 C 3200 656.147 3520 529.853 3840 529.853" transform="matrix(1,0,0,1,-174.24000549316406,0)" style="fill:none;stroke:rgb(84, 101, 203);transform:matrix(1, 0, 0, 1, -174.24, 0);opacity:1;;animation:none"></path>
<path stroke-width="2" stroke-opacity="0" stroke="rgb(82, 104, 204)" fill="none" d="M 0 530.815 C 320 530.815 640 655.185 960 655.185 C 1280 655.185 1600 530.815 1920 530.815 C 2240 530.815 2560 655.185 2880 655.185 C 3200 655.185 3520 530.815 3840 530.815" transform="matrix(1,0,0,1,-184.32000732421875,0)" style="fill:none;stroke:rgb(82, 104, 204);transform:matrix(1, 0, 0, 1, -184.32, 0);opacity:1;;animation:none"></path>
<path stroke-width="2" stroke-opacity="0" stroke="rgb(80, 106, 205)" fill="none" d="M 0 531.846 C 320 531.846 640 654.154 960 654.154 C 1280 654.154 1600 531.846 1920 531.846 C 2240 531.846 2560 654.154 2880 654.154 C 3200 654.154 3520 531.846 3840 531.846" transform="matrix(1,0,0,1,-194.39999389648438,0)" style="fill:none;stroke:rgb(80, 106, 205);transform:matrix(1, 0, 0, 1, -194.4, 0);opacity:1;;animation:none"></path>
<path stroke-width="2" stroke-opacity="0" stroke="rgb(78, 110, 206)" fill="none" d="M 0 533.003 C 320 533.003 640 652.997 960 652.997 C 1280 652.997 1600 533.003 1920 533.003 C 2240 533.003 2560 652.997 2880 652.997 C 3200 652.997 3520 533.003 3840 533.003" transform="matrix(1,0,0,1,-204.9600067138672,0)" style="fill:none;stroke:rgb(78, 110, 206);transform:matrix(1, 0, 0, 1, -204.96, 0);opacity:1;;animation:none"></path>
<path stroke-width="2" stroke-opacity="0" stroke="rgb(76, 113, 207)" fill="none" d="M 0 534.182 C 320 534.182 640 651.818 960 651.818 C 1280 651.818 1600 534.182 1920 534.182 C 2240 534.182 2560 651.818 2880 651.818 C 3200 651.818 3520 534.182 3840 534.182" transform="matrix(1,0,0,1,-215.0399932861328,0)" style="fill:none;stroke:rgb(76, 113, 207);transform:matrix(1, 0, 0, 1, -215.04, 0);opacity:1;;animation:none"></path>
<path stroke-width="2" stroke-opacity="0" stroke="rgb(73, 116, 208)" fill="none" d="M 0 535.437 C 320 535.437 640 650.563 960 650.563 C 1280 650.563 1600 535.437 1920 535.437 C 2240 535.437 2560 650.563 2880 650.563 C 3200 650.563 3520 535.437 3840 535.437" transform="matrix(1,0,0,1,-225.1199951171875,0)" style="fill:none;stroke:rgb(73, 116, 208);transform:matrix(1, 0, 0, 1, -225.12, 0);opacity:1;;animation:none"></path>
<path stroke-width="2" stroke-opacity="0" stroke="rgb(71, 119, 209)" fill="none" d="M 0 536.835 C 320 536.835 640 649.166 960 649.166 C 1280 649.166 1600 536.835 1920 536.835 C 2240 536.835 2560 649.166 2880 649.166 C 3200 649.166 3520 536.835 3840 536.835" transform="matrix(1,0,0,1,-235.67999267578125,0)" style="fill:none;stroke:rgb(71, 119, 209);transform:matrix(1, 0, 0, 1, -235.68, 0);opacity:1;;animation:none"></path>
<path stroke-width="2" stroke-opacity="0" stroke="rgb(69, 122, 210)" fill="none" d="M 0 538.249 C 320 538.249 640 647.751 960 647.751 C 1280 647.751 1600 538.249 1920 538.249 C 2240 538.249 2560 647.751 2880 647.751 C 3200 647.751 3520 538.249 3840 538.249" transform="matrix(1,0,0,1,-245.75999450683594,0)" style="fill:none;stroke:rgb(69, 122, 210);transform:matrix(1, 0, 0, 1, -245.76, 0);opacity:1;;animation:none"></path>
<path stroke-width="2" stroke-opacity="0" stroke="rgb(66, 126, 211)" fill="none" d="M 0 539.743 C 320 539.743 640 646.257 960 646.257 C 1280 646.257 1600 539.743 1920 539.743 C 2240 539.743 2560 646.257 2880 646.257 C 3200 646.257 3520 539.743 3840 539.743" transform="matrix(1,0,0,1,-255.83999633789062,0)" style="fill:none;stroke:rgb(66, 126, 211);transform:matrix(1, 0, 0, 1, -255.84, 0);opacity:1;;animation:none"></path>
<path stroke-width="2" stroke-opacity="0" stroke="rgb(64, 129, 212)" fill="none" d="M 0 541.397 C 320 541.397 640 644.603 960 644.603 C 1280 644.603 1600 541.397 1920 541.397 C 2240 541.397 2560 644.603 2880 644.603 C 3200 644.603 3520 541.397 3840 541.397" transform="matrix(1,0,0,1,-266.3999938964844,0)" style="fill:none;stroke:rgb(64, 129, 212);transform:matrix(1, 0, 0, 1, -266.4, 0);opacity:1;;animation:none"></path>
<path stroke-width="2" stroke-opacity="0" stroke="rgb(62, 132, 213)" fill="none" d="M 0 543.06 C 320 543.06 640 642.94 960 642.94 C 1280 642.94 1600 543.06 1920 543.06 C 2240 543.06 2560 642.94 2880 642.94 C 3200 642.94 3520 543.06 3840 543.06" transform="matrix(1,0,0,1,-276.4800109863281,0)" style="fill:none;stroke:rgb(62, 132, 213);transform:matrix(1, 0, 0, 1, -276.48, 0);opacity:1;;animation:none"></path>
<path stroke-width="2" stroke-opacity="0" stroke="rgb(60, 135, 214)" fill="none" d="M 0 544.807 C 320 544.807 640 641.193 960 641.193 C 1280 641.193 1600 544.807 1920 544.807 C 2240 544.807 2560 641.193 2880 641.193 C 3200 641.193 3520 544.807 3840 544.807" transform="matrix(1,0,0,1,-286.55999755859375,0)" style="fill:none;stroke:rgb(60, 135, 214);transform:matrix(1, 0, 0, 1, -286.56, 0);opacity:1;;animation:none"></path>
<path stroke-width="2" stroke-opacity="0" stroke="rgb(57, 138, 215)" fill="none" d="M 0 546.729 C 320 546.729 640 639.271 960 639.271 C 1280 639.271 1600 546.729 1920 546.729 C 2240 546.729 2560 639.271 2880 639.271 C 3200 639.271 3520 546.729 3840 546.729" transform="matrix(1,0,0,1,-297.1199951171875,0)" style="fill:none;stroke:rgb(57, 138, 215);transform:matrix(1, 0, 0, 1, -297.12, 0);opacity:1;;animation:none"></path>
<path stroke-width="2" stroke-opacity="0" stroke="rgb(56, 140, 216)" fill="none" d="M 0 548.651 C 320 548.651 640 637.349 960 637.349 C 1280 637.349 1600 548.651 1920 548.651 C 2240 548.651 2560 637.349 2880 637.349 C 3200 637.349 3520 548.651 3840 548.651" transform="matrix(1,0,0,1,-307.20001220703125,0)" style="fill:none;stroke:rgb(56, 140, 216);transform:matrix(1, 0, 0, 1, -307.2, 0);opacity:1;;animation:none"></path>
<path stroke-width="2" stroke-opacity="0" stroke="rgb(54, 143, 217)" fill="none" d="M 0 550.659 C 320 550.659 640 635.341 960 635.341 C 1280 635.341 1600 550.659 1920 550.659 C 2240 550.659 2560 635.341 2880 635.341 C 3200 635.341 3520 550.659 3840 550.659" transform="matrix(1,0,0,1,-317.2799987792969,0)" style="fill:none;stroke:rgb(54, 143, 217);transform:matrix(1, 0, 0, 1, -317.28, 0);opacity:1;;animation:none"></path>
<path stroke-width="2" stroke-opacity="0" stroke="rgb(52, 145, 217)" fill="none" d="M 0 552.854 C 320 552.854 640 633.146 960 633.146 C 1280 633.146 1600 552.854 1920 552.854 C 2240 552.854 2560 633.146 2880 633.146 C 3200 633.146 3520 552.854 3840 552.854" transform="matrix(1,0,0,1,-327.8399963378906,0)" style="fill:none;stroke:rgb(52, 145, 217);transform:matrix(1, 0, 0, 1, -327.84, 0);opacity:1;;animation:none"></path>
<path stroke-width="2" stroke-opacity="0" stroke="rgb(51, 147, 218)" fill="none" d="M 0 555.036 C 320 555.036 640 630.964 960 630.964 C 1280 630.964 1600 555.036 1920 555.036 C 2240 555.036 2560 630.964 2880 630.964 C 3200 630.964 3520 555.036 3840 555.036" transform="matrix(1,0,0,1,-337.9200134277344,0)" style="fill:none;stroke:rgb(51, 147, 218);transform:matrix(1, 0, 0, 1, -337.92, 0);opacity:1;;animation:none"></path>
<path stroke-width="2" stroke-opacity="0" stroke="rgb(49, 149, 219)" fill="none" d="M 0 557.303 C 320 557.303 640 628.697 960 628.697 C 1280 628.697 1600 557.303 1920 557.303 C 2240 557.303 2560 628.697 2880 628.697 C 3200 628.697 3520 557.303 3840 557.303" transform="matrix(1,0,0,1,-348,0)" style="fill:none;stroke:rgb(49, 149, 219);transform:matrix(1, 0, 0, 1, -348, 0);opacity:1;;animation:none"></path>
<path stroke-width="2" stroke-opacity="0" stroke="rgb(48, 151, 219)" fill="none" d="M 0 559.765 C 320 559.765 640 626.235 960 626.235 C 1280 626.235 1600 559.765 1920 559.765 C 2240 559.765 2560 626.235 2880 626.235 C 3200 626.235 3520 559.765 3840 559.765" transform="matrix(1,0,0,1,-358.55999755859375,0)" style="fill:none;stroke:rgb(48, 151, 219);transform:matrix(1, 0, 0, 1, -358.56, 0);opacity:1;;animation:none"></path>
<path stroke-width="2" stroke-opacity="0" stroke="rgb(47, 152, 220)" fill="none" d="M 0 562.197 C 320 562.197 640 623.803 960 623.803 C 1280 623.803 1600 562.197 1920 562.197 C 2240 562.197 2560 623.803 2880 623.803 C 3200 623.803 3520 562.197 3840 562.197" transform="matrix(1,0,0,1,-368.6400146484375,0)" style="fill:none;stroke:rgb(47, 152, 220);transform:matrix(1, 0, 0, 1, -368.64, 0);opacity:1;;animation:none"></path>
<path stroke-width="2" stroke-opacity="0" stroke="rgb(46, 153, 220)" fill="none" d="M 0 564.706 C 320 564.706 640 621.294 960 621.294 C 1280 621.294 1600 564.706 1920 564.706 C 2240 564.706 2560 621.294 2880 621.294 C 3200 621.294 3520 564.706 3840 564.706" transform="matrix(1,0,0,1,-378.7200012207031,0)" style="fill:none;stroke:rgb(46, 153, 220);transform:matrix(1, 0, 0, 1, -378.72, 0);opacity:1;;animation:none"></path>
<path stroke-width="2" stroke-opacity="0" stroke="rgb(45, 155, 221)" fill="none" d="M 0 567.413 C 320 567.413 640 618.587 960 618.587 C 1280 618.587 1600 567.413 1920 567.413 C 2240 567.413 2560 618.587 2880 618.587 C 3200 618.587 3520 567.413 3840 567.413" transform="matrix(1,0,0,1,-389.2799987792969,0)" style="fill:none;stroke:rgb(45, 155, 221);transform:matrix(1, 0, 0, 1, -389.28, 0);opacity:1;;animation:none"></path>
<path stroke-width="2" stroke-opacity="0" stroke="rgb(44, 156, 221)" fill="none" d="M 0 570.067 C 320 570.067 640 615.933 960 615.933 C 1280 615.933 1600 570.067 1920 570.067 C 2240 570.067 2560 615.933 2880 615.933 C 3200 615.933 3520 570.067 3840 570.067" transform="matrix(1,0,0,1,-399.3599853515625,0)" style="fill:none;stroke:rgb(44, 156, 221);transform:matrix(1, 0, 0, 1, -399.36, 0);opacity:1;;animation:none"></path>
<path stroke-width="2" stroke-opacity="0" stroke="rgb(44, 156, 221)" fill="none" d="M 0 572.784 C 320 572.784 640 613.216 960 613.216 C 1280 613.216 1600 572.784 1920 572.784 C 2240 572.784 2560 613.216 2880 613.216 C 3200 613.216 3520 572.784 3840 572.784" transform="matrix(1,0,0,1,-409.44000244140625,0)" style="fill:none;stroke:rgb(44, 156, 221);transform:matrix(1, 0, 0, 1, -409.44, 0);opacity:1;;animation:none"></path>
<path stroke-width="2" stroke-opacity="0" stroke="rgb(43, 157, 221)" fill="none" d="M 0 575.693 C 320 575.693 640 610.307 960 610.307 C 1280 610.307 1600 575.693 1920 575.693 C 2240 575.693 2560 610.307 2880 610.307 C 3200 610.307 3520 575.693 3840 575.693" transform="matrix(1,0,0,1,-420,0)" style="fill:none;stroke:rgb(43, 157, 221);transform:matrix(1, 0, 0, 1, -420, 0);opacity:1;;animation:none"></path>
<path stroke-width="2" stroke-opacity="0" stroke="rgb(43, 158, 222)" fill="none" d="M 0 578.52 C 320 578.52 640 607.48 960 607.48 C 1280 607.48 1600 578.52 1920 578.52 C 2240 578.52 2560 607.48 2880 607.48 C 3200 607.48 3520 578.52 3840 578.52" transform="matrix(1,0,0,1,-430.0799865722656,0)" style="fill:none;stroke:rgb(43, 158, 222);transform:matrix(1, 0, 0, 1, -430.08, 0);opacity:1;;animation:none"></path>
<path stroke-width="2" stroke-opacity="0" stroke="rgb(43, 158, 222)" fill="none" d="M 0 581.391 C 320 581.391 640 604.609 960 604.609 C 1280 604.609 1600 581.391 1920 581.391 C 2240 581.391 2560 604.609 2880 604.609 C 3200 604.609 3520 581.391 3840 581.391" transform="matrix(1,0,0,1,-440.1600036621094,0)" style="fill:none;stroke:rgb(43, 158, 222);transform:matrix(1, 0, 0, 1, -440.16, 0);opacity:1;;animation:none"></path>
<path stroke-width="2" stroke-opacity="0" stroke="rgb(42, 159, 222)" fill="none" d="M 0 584.437 C 320 584.437 640 601.563 960 601.563 C 1280 601.563 1600 584.437 1920 584.437 C 2240 584.437 2560 601.563 2880 601.563 C 3200 601.563 3520 584.437 3840 584.437" transform="matrix(1,0,0,1,-450.7200012207031,0)" style="fill:none;stroke:rgb(42, 159, 222);transform:matrix(1, 0, 0, 1, -450.72, 0);opacity:1;;animation:none"></path>
<path stroke-width="2" stroke-opacity="0" stroke="rgb(42, 159, 222)" fill="none" d="M 0 587.371 C 320 587.371 640 598.629 960 598.629 C 1280 598.629 1600 587.371 1920 587.371 C 2240 587.371 2560 598.629 2880 598.629 C 3200 598.629 3520 587.371 3840 587.371" transform="matrix(1,0,0,1,-460.79998779296875,0)" style="fill:none;stroke:rgb(42, 159, 222);transform:matrix(1, 0, 0, 1, -460.8, 0);opacity:1;;animation:none"></path>
<path stroke-width="2" stroke-opacity="0.022727272727272728" stroke="rgb(42, 159, 222)" fill="none" d="M 0 590.322 C 320 590.322 640 595.678 960 595.678 C 1280 595.678 1600 590.322 1920 590.322 C 2240 590.322 2560 595.678 2880 595.678 C 3200 595.678 3520 590.322 3840 590.322" transform="matrix(1,0,0,1,-470.8800048828125,0)" style="fill:none;stroke:rgb(42, 159, 222);transform:matrix(1, 0, 0, 1, -470.88, 0);opacity:1;;animation:none"></path>
<path stroke-width="2" stroke-opacity="0.045454545454545456" stroke="rgb(42, 159, 222)" fill="none" d="M 0 593.423 C 320 593.423 640 592.577 960 592.577 C 1280 592.577 1600 593.423 1920 593.423 C 2240 593.423 2560 592.577 2880 592.577 C 3200 592.577 3520 593.423 3840 593.423" transform="matrix(1,0,0,1,-481.44000244140625,0)" style="fill:none;stroke:rgb(42, 159, 222);transform:matrix(1, 0, 0, 1, -481.44, 0);opacity:1;;animation:none"></path>
<path stroke-width="2" stroke-opacity="0.06818181818181818" stroke="rgb(42, 159, 222)" fill="none" d="M 0 596.382 C 320 596.382 640 589.618 960 589.618 C 1280 589.618 1600 596.382 1920 596.382 C 2240 596.382 2560 589.618 2880 589.618 C 3200 589.618 3520 596.382 3840 596.382" transform="matrix(1,0,0,1,-491.5199890136719,0)" style="fill:none;stroke:rgb(42, 159, 222);transform:matrix(1, 0, 0, 1, -491.52, 0);opacity:1;;animation:none"></path>
<path stroke-width="2" stroke-opacity="0.09090909090909091" stroke="rgb(42, 159, 222)" fill="none" d="M 0 599.33 C 320 599.33 640 586.67 960 586.67 C 1280 586.67 1600 599.33 1920 599.33 C 2240 599.33 2560 586.67 2880 586.67 C 3200 586.67 3520 599.33 3840 599.33" transform="matrix(1,0,0,1,-501.6000061035156,0)" style="fill:none;stroke:rgb(42, 159, 222);transform:matrix(1, 0, 0, 1, -501.6, 0);opacity:1;;animation:none"></path>
<path stroke-width="2" stroke-opacity="0.11363636363636363" stroke="rgb(42, 159, 222)" fill="none" d="M 0 602.397 C 320 602.397 640 583.603 960 583.603 C 1280 583.603 1600 602.397 1920 602.397 C 2240 602.397 2560 583.603 2880 583.603 C 3200 583.603 3520 602.397 3840 602.397" transform="matrix(1,0,0,1,-512.1599731445312,0)" style="fill:none;stroke:rgb(42, 159, 222);transform:matrix(1, 0, 0, 1, -512.16, 0);opacity:1;;animation:none"></path>
<path stroke-width="2" stroke-opacity="0.13636363636363635" stroke="rgb(42, 160, 221)" fill="none" d="M 0 605.296 C 320 605.296 640 580.704 960 580.704 C 1280 580.704 1600 605.296 1920 605.296 C 2240 605.296 2560 580.704 2880 580.704 C 3200 580.704 3520 605.296 3840 605.296" transform="matrix(1,0,0,1,-522.239990234375,0)" style="fill:none;stroke:rgb(42, 160, 221);transform:matrix(1, 0, 0, 1, -522.24, 0);opacity:1;;animation:none"></path>
<path stroke-width="2" stroke-opacity="0.1590909090909091" stroke="rgb(42, 160, 221)" fill="none" d="M 0 608.157 C 320 608.157 640 577.843 960 577.843 C 1280 577.843 1600 608.157 1920 608.157 C 2240 608.157 2560 577.843 2880 577.843 C 3200 577.843 3520 608.157 3840 608.157" transform="matrix(1,0,0,1,-532.3200073242188,0)" style="fill:none;stroke:rgb(42, 160, 221);transform:matrix(1, 0, 0, 1, -532.32, 0);opacity:1;;animation:none"></path>
<path stroke-width="2" stroke-opacity="0.18181818181818182" stroke="rgb(42, 161, 220)" fill="none" d="M 0 611.106 C 320 611.106 640 574.894 960 574.894 C 1280 574.894 1600 611.106 1920 611.106 C 2240 611.106 2560 574.894 2880 574.894 C 3200 574.894 3520 611.106 3840 611.106" transform="matrix(1,0,0,1,-542.8800048828125,0)" style="fill:none;stroke:rgb(42, 161, 220);transform:matrix(1, 0, 0, 1, -542.88, 0);opacity:1;;animation:none"></path>
<path stroke-width="2" stroke-opacity="0.20454545454545456" stroke="rgb(42, 161, 220)" fill="none" d="M 0 613.868 C 320 613.868 640 572.132 960 572.132 C 1280 572.132 1600 613.868 1920 613.868 C 2240 613.868 2560 572.132 2880 572.132 C 3200 572.132 3520 613.868 3840 613.868" transform="matrix(1,0,0,1,-552.9600219726562,0)" style="fill:none;stroke:rgb(42, 161, 220);transform:matrix(1, 0, 0, 1, -552.96, 0);opacity:1;;animation:none"></path>
<path stroke-width="2" stroke-opacity="0.22727272727272727" stroke="rgb(42, 162, 219)" fill="none" d="M 0 616.571 C 320 616.571 640 569.429 960 569.429 C 1280 569.429 1600 616.571 1920 616.571 C 2240 616.571 2560 569.429 2880 569.429 C 3200 569.429 3520 616.571 3840 616.571" transform="matrix(1,0,0,1,-563.0399780273438,0)" style="fill:none;stroke:rgb(42, 162, 219);transform:matrix(1, 0, 0, 1, -563.04, 0);opacity:1;;animation:none"></path>
<path stroke-width="2" stroke-opacity="0.25" stroke="rgb(41, 163, 218)" fill="none" d="M 0 619.333 C 320 619.333 640 566.667 960 566.667 C 1280 566.667 1600 619.333 1920 619.333 C 2240 619.333 2560 566.667 2880 566.667 C 3200 566.667 3520 619.333 3840 619.333" transform="matrix(1,0,0,1,-573.5999755859375,0)" style="fill:none;stroke:rgb(41, 163, 218);transform:matrix(1, 0, 0, 1, -573.6, 0);opacity:1;;animation:none"></path>
<path stroke-width="2" stroke-opacity="0.2727272727272727" stroke="rgb(41, 164, 217)" fill="none" d="M 0 621.898 C 320 621.898 640 564.102 960 564.102 C 1280 564.102 1600 621.898 1920 621.898 C 2240 621.898 2560 564.102 2880 564.102 C 3200 564.102 3520 621.898 3840 621.898" transform="matrix(1,0,0,1,-583.6799926757812,0)" style="fill:none;stroke:rgb(41, 164, 217);transform:matrix(1, 0, 0, 1, -583.68, 0);opacity:1;;animation:none"></path>
<path stroke-width="2" stroke-opacity="0.29545454545454547" stroke="rgb(41, 165, 216)" fill="none" d="M 0 624.389 C 320 624.389 640 561.611 960 561.611 C 1280 561.611 1600 624.389 1920 624.389 C 2240 624.389 2560 561.611 2880 561.611 C 3200 561.611 3520 624.389 3840 624.389" transform="matrix(1,0,0,1,-593.760009765625,0)" style="fill:none;stroke:rgb(41, 165, 216);transform:matrix(1, 0, 0, 1, -593.76, 0);opacity:1;;animation:none"></path>
<path stroke-width="2" stroke-opacity="0.3181818181818182" stroke="rgb(41, 167, 214)" fill="none" d="M 0 626.915 C 320 626.915 640 559.085 960 559.085 C 1280 559.085 1600 626.915 1920 626.915 C 2240 626.915 2560 559.085 2880 559.085 C 3200 559.085 3520 626.915 3840 626.915" transform="matrix(1,0,0,1,-604.3200073242188,0)" style="fill:none;stroke:rgb(41, 167, 214);transform:matrix(1, 0, 0, 1, -604.32, 0);opacity:1;;animation:none"></path>
<path stroke-width="2" stroke-opacity="0.3409090909090909" stroke="rgb(41, 168, 213)" fill="none" d="M 0 629.244 C 320 629.244 640 556.756 960 556.756 C 1280 556.756 1600 629.244 1920 629.244 C 2240 629.244 2560 556.756 2880 556.756 C 3200 556.756 3520 629.244 3840 629.244" transform="matrix(1,0,0,1,-614.4000244140625,0)" style="fill:none;stroke:rgb(41, 168, 213);transform:matrix(1, 0, 0, 1, -614.4, 0);opacity:1;;animation:none"></path>
<path stroke-width="2" stroke-opacity="0.36363636363636365" stroke="rgb(41, 170, 211)" fill="none" d="M 0 631.491 C 320 631.491 640 554.509 960 554.509 C 1280 554.509 1600 631.491 1920 631.491 C 2240 631.491 2560 554.509 2880 554.509 C 3200 554.509 3520 631.491 3840 631.491" transform="matrix(1,0,0,1,-624.47998046875,0)" style="fill:none;stroke:rgb(41, 170, 211);transform:matrix(1, 0, 0, 1, -624.48, 0);opacity:1;;animation:none"></path>
<path stroke-width="2" stroke-opacity="0.38636363636363635" stroke="rgb(40, 172, 209)" fill="none" d="M 0 633.754 C 320 633.754 640 552.246 960 552.246 C 1280 552.246 1600 633.754 1920 633.754 C 2240 633.754 2560 552.246 2880 552.246 C 3200 552.246 3520 633.754 3840 633.754" transform="matrix(1,0,0,1,-635.0399780273438,0)" style="fill:none;stroke:rgb(40, 172, 209);transform:matrix(1, 0, 0, 1, -635.04, 0);opacity:1;;animation:none"></path>
<path stroke-width="2" stroke-opacity="0.4090909090909091" stroke="rgb(40, 174, 207)" fill="none" d="M 0 635.827 C 320 635.827 640 550.173 960 550.173 C 1280 550.173 1600 635.827 1920 635.827 C 2240 635.827 2560 550.173 2880 550.173 C 3200 550.173 3520 635.827 3840 635.827" transform="matrix(1,0,0,1,-645.1199951171875,0)" style="fill:none;stroke:rgb(40, 174, 207);transform:matrix(1, 0, 0, 1, -645.12, 0);opacity:1;;animation:none"></path>
<path stroke-width="2" stroke-opacity="0.4318181818181818" stroke="rgb(40, 176, 205)" fill="none" d="M 0 637.814 C 320 637.814 640 548.186 960 548.186 C 1280 548.186 1600 637.814 1920 637.814 C 2240 637.814 2560 548.186 2880 548.186 C 3200 548.186 3520 637.814 3840 637.814" transform="matrix(1,0,0,1,-655.2000122070312,0)" style="fill:none;stroke:rgb(40, 176, 205);transform:matrix(1, 0, 0, 1, -655.2, 0);opacity:1;;animation:none"></path>
<path stroke-width="2" stroke-opacity="0.45454545454545453" stroke="rgb(39, 179, 202)" fill="none" d="M 0 639.804 C 320 639.804 640 546.196 960 546.196 C 1280 546.196 1600 639.804 1920 639.804 C 2240 639.804 2560 546.196 2880 546.196 C 3200 546.196 3520 639.804 3840 639.804" transform="matrix(1,0,0,1,-665.760009765625,0)" style="fill:none;stroke:rgb(39, 179, 202);transform:matrix(1, 0, 0, 1, -665.76, 0);opacity:1;;animation:none"></path>
<path stroke-width="2" stroke-opacity="0.4772727272727273" stroke="rgb(39, 181, 200)" fill="none" d="M 0 641.617 C 320 641.617 640 544.384 960 544.384 C 1280 544.384 1600 641.617 1920 641.617 C 2240 641.617 2560 544.384 2880 544.384 C 3200 544.384 3520 641.617 3840 641.617" transform="matrix(1,0,0,1,-675.8400268554688,0)" style="fill:none;stroke:rgb(39, 181, 200);transform:matrix(1, 0, 0, 1, -675.84, 0);opacity:1;;animation:none"></path>
<path stroke-width="2" stroke-opacity="0.5" stroke="rgb(39, 184, 197)" fill="none" d="M 0 643.344 C 320 643.344 640 542.656 960 542.656 C 1280 542.656 1600 643.344 1920 643.344 C 2240 643.344 2560 542.656 2880 542.656 C 3200 542.656 3520 643.344 3840 643.344" transform="matrix(1,0,0,1,-685.9199829101562,0)" style="fill:none;stroke:rgb(39, 184, 197);transform:matrix(1, 0, 0, 1, -685.92, 0);opacity:1;;animation:none"></path>
<path stroke-width="2" stroke-opacity="0.5227272727272727" stroke="rgb(38, 187, 194)" fill="none" d="M 0 645.063 C 320 645.063 640 540.937 960 540.937 C 1280 540.937 1600 645.063 1920 645.063 C 2240 645.063 2560 540.937 2880 540.937 C 3200 540.937 3520 645.063 3840 645.063" transform="matrix(1,0,0,1,-696.47998046875,0)" style="fill:none;stroke:rgb(38, 187, 194);transform:matrix(1, 0, 0, 1, -696.48, 0);opacity:1;;animation:none"></path>
<path stroke-width="2" stroke-opacity="0.5454545454545454" stroke="rgb(38, 190, 191)" fill="none" d="M 0 646.62 C 320 646.62 640 539.38 960 539.38 C 1280 539.38 1600 646.62 1920 646.62 C 2240 646.62 2560 539.38 2880 539.38 C 3200 539.38 3520 646.62 3840 646.62" transform="matrix(1,0,0,1,-706.5599975585938,0)" style="fill:none;stroke:rgb(38, 190, 191);transform:matrix(1, 0, 0, 1, -706.56, 0);opacity:1;;animation:none"></path>
<path stroke-width="2" stroke-opacity="0.5681818181818182" stroke="rgb(38, 193, 188)" fill="none" d="M 0 648.095 C 320 648.095 640 537.905 960 537.905 C 1280 537.905 1600 648.095 1920 648.095 C 2240 648.095 2560 537.905 2880 537.905 C 3200 537.905 3520 648.095 3840 648.095" transform="matrix(1,0,0,1,-716.6400146484375,0)" style="fill:none;stroke:rgb(38, 193, 188);transform:matrix(1, 0, 0, 1, -716.64, 0);opacity:1;;animation:none"></path>
<path stroke-width="2" stroke-opacity="0.5909090909090909" stroke="rgb(37, 196, 185)" fill="none" d="M 0 649.555 C 320 649.555 640 536.445 960 536.445 C 1280 536.445 1600 649.555 1920 649.555 C 2240 649.555 2560 536.445 2880 536.445 C 3200 536.445 3520 649.555 3840 649.555" transform="matrix(1,0,0,1,-727.2000122070312,0)" style="fill:none;stroke:rgb(37, 196, 185);transform:matrix(1, 0, 0, 1, -727.2, 0);opacity:1;;animation:none"></path>
<path stroke-width="2" stroke-opacity="0.6136363636363636" stroke="rgb(37, 198, 183)" fill="none" d="M 0 650.868 C 320 650.868 640 535.132 960 535.132 C 1280 535.132 1600 650.868 1920 650.868 C 2240 650.868 2560 535.132 2880 535.132 C 3200 535.132 3520 650.868 3840 650.868" transform="matrix(1,0,0,1,-737.280029296875,0)" style="fill:none;stroke:rgb(37, 198, 183);transform:matrix(1, 0, 0, 1, -737.28, 0);opacity:1;;animation:none"></path>
<path stroke-width="2" stroke-opacity="0.6363636363636364" stroke="rgb(36, 201, 180)" fill="none" d="M 0 652.105 C 320 652.105 640 533.895 960 533.895 C 1280 533.895 1600 652.105 1920 652.105 C 2240 652.105 2560 533.895 2880 533.895 C 3200 533.895 3520 652.105 3840 652.105" transform="matrix(1,0,0,1,-747.3599853515625,0)" style="fill:none;stroke:rgb(36, 201, 180);transform:matrix(1, 0, 0, 1, -747.36, 0);opacity:1;;animation:none"></path>
<path stroke-width="2" stroke-opacity="0.6590909090909091" stroke="rgb(36, 204, 177)" fill="none" d="M 0 653.321 C 320 653.321 640 532.679 960 532.679 C 1280 532.679 1600 653.321 1920 653.321 C 2240 653.321 2560 532.679 2880 532.679 C 3200 532.679 3520 653.321 3840 653.321" transform="matrix(1,0,0,1,-757.9199829101562,0)" style="fill:none;stroke:rgb(36, 204, 177);transform:matrix(1, 0, 0, 1, -757.92, 0);opacity:1;;animation:none"></path>
<g style="fill:rgb(0, 0, 0);stroke:none;transform:none;opacity:1;;animation:none"></g></g><!-- [ldio] generated by https://loading.io --></svg>